<svg id="Capa_1" enable-background="new 0 0 511.998 511.998" height="512" viewBox="0 0 511.998 511.998" width="512" xmlns="http://www.w3.org/2000/svg"><g><g><g><g><circle cx="450.413" cy="450.413" fill="#72f4c3" r="19.564"/><path d="m469.977 450.416c0 10.8-8.76 19.56-19.56 19.56-4.21 0-8.12-1.33-11.32-3.61 7.56-1.38 13.28-8 13.28-15.95 0-7.96-5.73-14.58-13.29-15.95 3.2-2.28 7.11-3.62 11.33-3.62 10.8 0 19.56 8.76 19.56 19.57z" fill="#27e19d"/></g></g><g><g><circle cx="61.587" cy="61.587" fill="#72f4c3" r="19.564"/><path d="m81.151 61.59c0 10.8-8.76 19.56-19.56 19.56-4.21 0-8.12-1.33-11.32-3.61 7.56-1.38 13.28-8 13.28-15.95 0-7.96-5.73-14.58-13.29-15.95 3.2-2.28 7.11-3.62 11.33-3.62 10.8 0 19.56 8.76 19.56 19.57z" fill="#27e19d"/></g></g></g><g><g><g><g><circle cx="459.807" cy="365.113" fill="#72f4c3" r="19.564"/><path d="m479.371 365.116c0 10.8-8.76 19.56-19.56 19.56-4.21 0-8.12-1.33-11.32-3.61 7.56-1.38 13.28-8 13.28-15.95 0-7.96-5.73-14.58-13.29-15.95 3.2-2.28 7.11-3.62 11.33-3.62 10.8 0 19.56 8.76 19.56 19.57z" fill="#27e19d"/></g></g><g><g><circle cx="146.887" cy="52.193" fill="#72f4c3" r="19.564"/><path d="m166.451 52.196c0 10.8-8.76 19.56-19.56 19.56-4.21 0-8.12-1.33-11.32-3.61 7.56-1.38 13.28-8 13.28-15.95 0-7.96-5.73-14.58-13.29-15.95 3.2-2.28 7.11-3.62 11.33-3.62 10.8 0 19.56 8.76 19.56 19.57z" fill="#27e19d"/></g></g></g><g><g><g><circle cx="365.113" cy="459.808" fill="#72f4c3" r="19.564"/><path d="m384.677 459.81c0 10.8-8.76 19.56-19.56 19.56-4.21 0-8.12-1.33-11.32-3.61 7.56-1.38 13.28-8 13.28-15.95 0-7.96-5.73-14.58-13.29-15.95 3.2-2.28 7.11-3.62 11.33-3.62 10.8 0 19.56 8.76 19.56 19.57z" fill="#27e19d"/></g></g><g><g><circle cx="52.193" cy="146.887" fill="#72f4c3" r="19.564"/><path d="m71.757 146.89c0 10.8-8.76 19.56-19.56 19.56-4.21 0-8.12-1.33-11.32-3.61 7.56-1.38 13.28-8 13.28-15.95 0-7.96-5.73-14.58-13.29-15.95 3.2-2.28 7.11-3.62 11.33-3.62 10.8 0 19.56 8.76 19.56 19.57z" fill="#27e19d"/></g></g></g></g><g><g><path d="m126.214 390.996c-7.767 0-14.063-6.296-14.063-14.063v-69.518c0-15.29-12.439-27.73-27.73-27.73s-27.73 12.439-27.73 27.73v69.518c0 7.767-6.296 14.063-14.063 14.063s-14.063-6.296-14.063-14.063v-69.518c0-30.799 25.057-55.856 55.856-55.856s55.856 25.057 55.856 55.856v69.518c0 7.767-6.296 14.063-14.063 14.063z" fill="#a3afe4"/></g><g><path d="m160.82 378.809v111.13c0 7.77-6.3 14.06-14.07 14.06h-125.19c-7.76 0-14.06-6.29-14.06-14.06v-111.13c0-7.77 6.3-14.06 14.06-14.06h125.19c7.77 0 14.07 6.29 14.07 14.06z" fill="#5169cd"/><g fill="#3351c5"><path d="m160.82 378.809v55.12c-30.02-15.63-54.91-39.75-71.51-69.18h57.44c7.77 0 14.07 6.29 14.07 14.06z"/><path d="m160.821 378.811v111.125c0 7.772-6.3 14.062-14.062 14.062h-31.005c7.762 0 14.062-6.289 14.062-14.062v-111.125c0-7.772-6.3-14.062-14.062-14.062h31.005c7.763 0 14.062 6.29 14.062 14.062z"/></g></g></g><g><circle cx="246.527" cy="248.826" fill="#fcc16d" r="174.284"/><path d="m420.811 248.826c0 96.253-78.032 174.284-174.284 174.284-4.615 0-9.195-.182-13.718-.533 89.835-6.999 160.559-82.12 160.559-173.751s-70.724-166.752-160.56-173.751c4.524-.351 9.103-.533 13.718-.533 96.253 0 174.285 78.031 174.285 174.284z" fill="#fcb44d"/><g><circle cx="246.527" cy="248.826" fill="#fee7c9" r="144.119"/><path d="m390.645 248.826c0 79.593-64.525 144.118-144.118 144.118-4.798 0-9.54-.234-14.214-.695 72.916-7.138 129.897-68.628 129.897-143.423s-56.981-136.285-129.897-143.423c4.674-.461 9.417-.695 14.214-.695 79.593 0 144.118 64.525 144.118 144.118z" fill="#ffd496"/><g><ellipse cx="246.527" cy="248.826" fill="#fb9927" rx="114.546" ry="114.546" transform="matrix(.707 -.707 .707 .707 -103.741 247.2)"/></g><g><path d="m361.072 248.828c0 63.156-51.387 114.544-114.544 114.544-4.838 0-9.613-.305-14.293-.894 56.436-7.047 100.251-55.331 100.251-113.65 0-58.329-43.815-106.603-100.251-113.65 4.68-.589 9.455-.894 14.293-.894 63.157.001 114.544 51.377 114.544 114.544z" fill="#f98824"/></g></g></g><g><path d="m397.05 8.353-94.213 25.205c-4.6 1.231-7.799 5.398-7.799 10.16v56.793c0 46.022 16.594 85.286 48.146 113.372 23.886 21.262 45.197 29.246 53.575 31.761 1.968.591 4.051.591 6.02 0 8.378-2.516 29.688-10.499 53.575-31.761 31.552-28.086 48.146-67.35 48.146-113.372v-56.793c0-4.762-3.199-8.929-7.799-10.16l-94.215-25.205c-1.781-.477-3.655-.477-5.436 0z" fill="#5169cd"/><path d="m504.5 43.722v56.793c0 46.013-16.596 85.285-48.148 113.366-23.864 21.245-45.161 29.238-53.554 31.752 8.109-4.754 17.301-11.159 26.924-19.72 31.552-28.092 48.148-67.353 48.148-113.376v-77.829c0-2.598-.947-5.006-2.566-6.868l21.392 5.721c4.607 1.232 7.804 5.397 7.804 10.161z" fill="#3351c5"/><path d="m399.767 218.895c-7.853-2.998-22.644-10.002-39.102-24.652-25.733-22.906-39.335-55.318-39.335-93.732v-44.683l78.437-20.985 78.438 20.985v44.683c0 38.414-13.602 70.826-39.335 93.732-16.454 14.648-31.243 21.652-39.103 24.652z" fill="#fc7cb6"/><path d="m399.767 34.843 78.438 20.985v44.683c0 38.414-13.602 70.826-39.335 93.732-16.455 14.648-31.244 21.652-39.103 24.652z" fill="#fb4297"/><path d="m478.207 55.827v44.688c0 38.409-13.599 70.823-39.334 93.73-15.765 14.041-30.006 21.056-38.072 24.253 4.133-2.934 8.508-6.363 12.999-10.359 25.736-22.907 39.335-55.321 39.335-93.74v-65.282z" fill="#e2267f"/></g><path d="m104.553 417.013c0-12.044-10.441-21.649-22.766-20.258-9.311 1.051-16.819 8.556-17.882 17.865-.888 7.772 2.613 14.773 8.324 18.906v23.869c0 5.809 4.709 10.517 10.517 10.517h2.828c5.809 0 10.517-4.709 10.517-10.517v-23.869c5.119-3.704 8.462-9.711 8.462-16.513z" fill="#213993"/><g><path d="m290.252 247.063c-2.092-1.673-2.412-4.719-.807-6.864 4.145-5.543 6.604-12.416 6.604-19.854 0-14.824-9.754-27.41-23.18-31.684-2.075-.66-3.486-2.58-3.486-4.757v-8.811c0-2.761-2.239-5-5-5h-5c-2.761 0-5 2.239-5 5v7.009c0 2.761-2.239 5-5 5h-6.327c-2.761 0-5-2.239-5-5v-7.009c0-2.761-2.239-5-5-5h-5c-2.761 0-5 2.239-5 5v7.009c0 2.761-2.239 5-5 5h-11.11c-2.761 0-5 2.239-5 5v5c0 2.761 2.239 5 5 5h6.993c2.761 0 5 2.239 5 5v88.923c0 2.761-2.239 5-5 5h-6.993c-2.761 0-5 2.239-5 5v5c0 2.761 2.239 5 5 5h11.11c2.761 0 5 2.239 5 5v7.009c0 2.761 2.239 5 5 5h5c2.761 0 5-2.239 5-5v-7.009c0-2.761 2.239-5 5-5h6.327c2.761 0 5 2.239 5 5v7.009c0 2.761 2.239 5 5 5h5c2.761 0 5-2.239 5-5v-7.815c0-2.397 1.704-4.449 4.057-4.902 17.854-3.436 31.386-19.168 31.386-38.01 0-12.226-5.697-23.143-14.574-30.244zm-27.446-44.962c10.293 0 18.623 8.569 18.23 18.948-.374 9.872-8.799 17.539-18.678 17.539h-23.419c-2.761 0-5-2.239-5-5v-26.486c0-2.761 2.239-5 5-5h23.867zm2.763 98.923h-26.631c-2.761 0-5-2.239-5-5v-37.437c0-2.761 2.239-5 5-5h27.17c12.942 0 23.496 10.42 23.714 23.311.225 13.268-10.984 24.126-24.253 24.126z"/><path d="m511.998 100.511v-56.793c0-8.144-5.494-15.301-13.36-17.405l-94.213-25.205c-3.048-.816-6.268-.815-9.313 0l-94.212 25.205c-7.867 2.104-13.362 9.261-13.362 17.405v27.982c-13.389-3.086-27.152-4.658-41.011-4.658-22.116 0-43.321 3.975-62.942 11.24l-13.013-13.012c2.15-3.879 3.379-8.336 3.379-13.077 0-14.923-12.141-27.064-27.064-27.064s-27.064 12.141-27.064 27.064 12.141 27.064 27.064 27.064c4.741 0 9.199-1.229 13.079-3.38l8.705 8.704c-16.109 7.667-30.922 17.631-44.007 29.474l-39.391-39.391c2.15-3.879 3.379-8.336 3.379-13.076 0-14.923-12.141-27.064-27.064-27.064s-27.063 12.141-27.063 27.064 12.141 27.064 27.063 27.064c4.741 0 9.2-1.229 13.079-3.38l39.301 39.302c-12.038 12.834-22.235 27.41-30.174 43.306l-7.915-7.915c2.15-3.879 3.379-8.336 3.379-13.077 0-14.923-12.141-27.064-27.064-27.064s-27.063 12.141-27.063 27.064 12.141 27.064 27.063 27.064c4.741 0 9.2-1.229 13.079-3.38l11.98 11.98c-7.883 20.065-12.287 41.86-12.489 64.641-25.896 8.455-43.697 32.728-43.697 60.222v49.858c-11.66.266-21.067 9.815-21.067 21.537v32.285c0 4.142 3.357 7.5 7.5 7.5s7.5-3.358 7.5-7.5v-32.285c0-3.619 2.944-6.563 6.562-6.563h91.631c11.732 12.665 25.238 23.662 40.124 32.589v85.103c0 3.619-2.944 6.563-6.562 6.563h-125.193c-3.618 0-6.562-2.944-6.562-6.563v-42.555c0-4.142-3.357-7.5-7.5-7.5s-7.5 3.358-7.5 7.5v42.555c0 11.89 9.673 21.563 21.562 21.563h125.192c11.89 0 21.562-9.673 21.562-21.563v-77.033c23.702 11.344 50.226 17.704 78.209 17.704 23.374 0 45.73-4.438 66.275-12.51l28.628 28.628c-2.151 3.88-3.38 8.338-3.38 13.079 0 14.923 12.141 27.064 27.064 27.064s27.064-12.141 27.064-27.064-12.141-27.064-27.064-27.064c-4.74 0-9.198 1.229-13.077 3.379l-24.563-24.563c15.896-7.939 30.471-18.137 43.306-30.174l55.949 55.949c-2.151 3.879-3.38 8.337-3.38 13.078 0 14.923 12.141 27.064 27.064 27.064s27.063-12.141 27.063-27.064-12.141-27.064-27.063-27.064c-4.741 0-9.198 1.229-13.077 3.379l-56.038-56.039c11.843-13.085 21.806-27.897 29.474-44.006l25.352 25.352c-2.151 3.879-3.38 8.337-3.38 13.079 0 14.923 12.141 27.064 27.064 27.064s27.063-12.141 27.063-27.064-12.141-27.064-27.063-27.064c-4.741 0-9.198 1.229-13.077 3.379l-29.66-29.66c7.265-19.622 11.24-40.826 11.24-62.942 0-1.977-.04-3.964-.104-5.934 9.637-5.201 21.106-12.702 33.132-23.406 33.143-29.502 50.661-70.642 50.661-118.975zm-377.176-48.318c0-6.652 5.412-12.064 12.064-12.064s12.064 5.412 12.064 12.064-5.412 12.064-12.064 12.064-12.064-5.412-12.064-12.064zm-94.693 94.694c0-6.652 5.412-12.064 12.063-12.064 6.652 0 12.064 5.412 12.064 12.064s-5.412 12.064-12.064 12.064c-6.651 0-12.063-5.412-12.063-12.064zm337.049 312.921c0 6.652-5.412 12.064-12.064 12.064s-12.064-5.412-12.064-12.064 5.412-12.064 12.064-12.064 12.064 5.411 12.064 12.064zm94.693-94.695c0 6.652-5.412 12.064-12.063 12.064-6.652 0-12.064-5.412-12.064-12.064s5.412-12.064 12.064-12.064c6.651 0 12.063 5.413 12.063 12.064zm-422.348-303.525c0-6.652 5.412-12.064 12.063-12.064 6.652 0 12.064 5.412 12.064 12.064s-5.412 12.064-12.064 12.064c-6.65-.001-12.063-5.413-12.063-12.064zm15.77 201.421c.362 4.673.904 9.297 1.615 13.866-10.876 6.235-17.715 17.797-17.715 30.54v49.833h-13.127v-49.833c0-19.491 11.722-36.859 29.227-44.406zm-1.101 94.238v-49.833c0-5.51 2.231-10.638 6-14.368 5.907 23.546 16.411 45.286 30.511 64.2h-36.511zm398.285 93.166c0 6.652-5.412 12.064-12.063 12.064-6.652 0-12.064-5.412-12.064-12.064s5.412-12.064 12.064-12.064c6.65 0 12.063 5.412 12.063 12.064zm-215.951-34.803c-91.965 0-166.784-74.819-166.784-166.785s74.82-166.783 166.784-166.783c13.893 0 27.672 1.73 41.011 5.102v13.368c0 .779.021 1.55.03 2.325-13.303-3.733-27.072-5.63-41.041-5.63-83.604 0-151.619 68.016-151.619 151.619 0 83.604 68.016 151.62 151.619 151.62 82.04 0 149.062-65.498 151.54-146.948.566.054 1.134.091 1.702.091 1.738 0 3.477-.254 5.165-.762 2.042-.613 4.887-1.56 8.364-2.94-.574 91.478-75.161 165.723-166.771 165.723zm204.84-207.329c-22.866 20.354-43.105 27.886-50.747 30.181-.557.166-1.146.167-1.704 0-7.641-2.294-27.881-9.829-50.744-30.18-4.09-3.64-8.013-7.591-11.662-11.743-2.734-3.112-7.474-3.417-10.585-.682-3.111 2.734-3.417 7.473-.683 10.584 4.052 4.61 8.411 8.999 12.956 13.045 4.714 4.196 9.344 7.901 13.811 11.168 1.024 5.969 1.564 12.072 1.564 18.172 0 59.025-48.021 107.046-107.046 107.046s-107.046-48.021-107.046-107.046c0-52.638 37.67-97.054 89.569-105.611 4.087-.674 6.854-4.533 6.181-8.62-.674-4.086-4.546-6.859-8.62-6.18-28.193 4.648-54.033 19.239-72.761 41.083-18.939 22.092-29.369 50.265-29.369 79.328 0 67.296 54.75 122.046 122.046 122.046s122.046-54.75 122.046-122.046c0-2.533-.085-5.067-.241-7.595 5.534 3.144 10.542 5.554 14.812 7.38 0 .072.002.143.002.215 0 75.333-61.287 136.62-136.619 136.62s-136.619-61.287-136.619-136.62c0-75.332 61.287-136.619 136.619-136.619 14.322 0 28.401 2.225 41.891 6.567.535 5.543 1.306 10.986 2.335 16.31-8.206-3.202-16.73-5.51-25.486-6.865-4.104-.633-7.925 2.172-8.56 6.264-.633 4.093 2.172 7.925 6.265 8.559 11.372 1.761 22.3 5.351 32.526 10.638 2.335 7.293 5.174 14.337 8.526 21.106 1.838 3.711 6.335 5.234 10.05 3.394 3.712-1.838 5.231-6.337 3.394-10.049-9.906-20.009-14.93-42.76-14.93-67.62v-56.793c0-1.364.92-2.562 2.238-2.915l94.213-25.205c.511-.137 1.051-.136 1.56 0l94.213 25.205c1.317.353 2.237 1.551 2.237 2.915v56.793c0 43.931-15.779 81.197-45.632 107.77z"/><path d="m480.144 48.583-78.438-20.985c-1.27-.34-2.607-.34-3.877 0l-78.437 20.985c-3.28.877-5.562 3.85-5.562 7.245v44.683c0 40.616 14.471 74.965 41.848 99.334 17.538 15.612 33.476 23.027 41.414 26.057.861.329 1.769.493 2.675.493s1.813-.165 2.675-.493c7.939-3.03 23.877-10.445 41.414-26.057 27.378-24.369 41.849-58.718 41.849-99.334v-44.683c0-3.395-2.281-6.367-5.561-7.245zm-151.313 51.928v-38.925l63.437-16.972v162.639c-7.265-3.799-16.592-9.689-26.615-18.612-24.09-21.442-36.822-51.917-36.822-88.13zm141.874 0c0 36.213-12.732 66.688-36.821 88.13-10.024 8.923-19.351 14.813-26.616 18.612v-162.639l63.438 16.972v38.925z"/><path d="m82.747 475.413h2.827c9.935 0 18.018-8.083 18.018-18.017v-20.404c5.355-5.215 8.461-12.432 8.461-19.979 0-7.933-3.395-15.516-9.313-20.805-5.915-5.284-13.856-7.805-21.794-6.906-12.736 1.438-23.036 11.728-24.491 24.467-.99 8.668 2.135 17.241 8.275 23.223v20.404c-.001 9.935 8.082 18.017 18.017 18.017zm-11.391-59.942c.67-5.865 5.411-10.602 11.271-11.264.516-.058 1.027-.087 1.535-.087 3.188 0 6.189 1.136 8.582 3.273 2.737 2.446 4.308 5.952 4.308 9.619 0 4.168-1.953 7.973-5.358 10.438-1.948 1.411-3.103 3.67-3.103 6.076v23.87c0 1.664-1.354 3.017-3.018 3.017h-2.827c-1.664 0-3.018-1.354-3.018-3.017v-23.87c0-2.405-1.153-4.665-3.103-6.075-3.837-2.779-5.808-7.258-5.269-11.98z"/></g></g></svg>