<svg height="496pt" viewBox="0 0 496 496" width="496pt" xmlns="http://www.w3.org/2000/svg"><path d="m472 240c13.230469 0 24-10.769531 24-24s-10.769531-24-24-24c-10.414062 0-19.214844 6.710938-22.527344 16h-79.96875c-1.824218-5.519531-4.0625-10.839844-6.582031-16h37.078125c2.128906 0 4.160156-.839844 5.65625-2.34375l29.65625-29.65625h14.160156c3.3125 9.289062 12.113282 16 22.527344 16 13.230469 0 24-10.769531 24-24s-10.769531-24-24-24c-10.414062 0-19.214844 6.710938-22.527344 16h-17.472656c-2.128906 0-4.160156.839844-5.65625 2.34375l-29.65625 29.65625h-42.945312c-15.71875-23.015625-38.773438-40.609375-65.742188-49.511719v-16.945312l58.816406-22.054688c3.113282-1.167969 5.183594-4.152343 5.183594-7.488281v-33.472656c9.289062-3.3125 16-12.113282 16-22.527344 0-13.230469-10.769531-24-24-24s-24 10.769531-24 24c0 10.414062 6.710938 19.214844 16 22.527344v27.929687l-48 18v-13.929687c9.289062-3.3125 16-12.113282 16-22.527344 0-13.230469-10.769531-24-24-24s-24 10.769531-24 24c0 10.414062 6.710938 19.214844 16 22.527344v43.808594c-7.785156-1.488282-15.792969-2.335938-24-2.335938s-16.214844.847656-24 2.335938v-75.808594c9.289062-3.3125 16-12.113282 16-22.527344 0-13.230469-10.769531-24-24-24s-24 10.769531-24 24c0 10.414062 6.710938 19.214844 16 22.527344v79.96875c-5.519531 1.824218-10.839844 4.0625-16 6.582031v-37.078125c0-2.128906-.839844-4.160156-2.34375-5.65625l-29.65625-29.65625v-14.160156c9.289062-3.3125 16-12.113282 16-22.527344 0-13.230469-10.769531-24-24-24s-24 10.769531-24 24c0 10.414062 6.710938 19.214844 16 22.527344v17.472656c0 2.128906.839844 4.160156 2.34375 5.65625l29.65625 29.65625v42.945312c-23.015625 15.71875-40.609375 38.773438-49.511719 65.742188h-16.945312l-22.054688-58.816406c-1.167969-3.113282-4.152343-5.183594-7.488281-5.183594h-33.472656c-3.3125-9.289062-12.113282-16-22.527344-16-13.230469 0-24 10.769531-24 24s10.769531 24 24 24c10.414062 0 19.214844-6.710938 22.527344-16h27.929687l18 48h-13.929687c-3.3125-9.289062-12.113282-16-22.527344-16-13.230469 0-24 10.769531-24 24s10.769531 24 24 24c10.414062 0 19.214844-6.710938 22.527344-16h43.808594c-1.488282 7.785156-2.335938 15.792969-2.335938 24s.847656 16.214844 2.335938 24h-75.808594c-3.3125-9.289062-12.113282-16-22.527344-16-13.230469 0-24 10.769531-24 24s10.769531 24 24 24c10.414062 0 19.214844-6.710938 22.527344-16h79.96875c1.824218 5.519531 4.0625 10.839844 6.59375 16h-37.089844c-2.128906 0-4.160156.839844-5.65625 2.34375l-29.65625 29.65625h-14.160156c-3.3125-9.289062-12.113282-16-22.527344-16-13.230469 0-24 10.769531-24 24s10.769531 24 24 24c10.414062 0 19.214844-6.710938 22.527344-16h17.472656c2.128906 0 4.160156-.839844 5.65625-2.34375l29.65625-29.65625h42.945312c15.71875 23.015625 38.773438 40.609375 65.742188 49.511719v16.945312l-58.816406 22.054688c-3.113282 1.167969-5.183594 4.152343-5.183594 7.488281v33.472656c-9.289062 3.3125-16 12.113282-16 22.527344 0 13.230469 10.769531 24 24 24s24-10.769531 24-24c0-10.414062-6.710938-19.214844-16-22.527344v-27.929687l48-18v13.929687c-9.289062 3.3125-16 12.113282-16 22.527344 0 13.230469 10.769531 24 24 24s24-10.769531 24-24c0-10.414062-6.710938-19.214844-16-22.527344v-43.808594c7.785156 1.488282 15.792969 2.335938 24 2.335938s16.214844-.847656 24-2.335938v75.808594c-9.289062 3.3125-16 12.113282-16 22.527344 0 13.230469 10.769531 24 24 24s24-10.769531 24-24c0-10.414062-6.710938-19.214844-16-22.527344v-79.96875c5.519531-1.824218 10.839844-4.0625 16-6.582031v37.078125c0 2.128906.839844 4.160156 2.34375 5.65625l29.65625 29.65625v14.160156c-9.289062 3.3125-16 12.113282-16 22.527344 0 13.230469 10.769531 24 24 24s24-10.769531 24-24c0-10.414062-6.710938-19.214844-16-22.527344v-17.472656c0-2.128906-.839844-4.160156-2.34375-5.65625l-29.65625-29.65625v-42.945312c23.015625-15.71875 40.609375-38.773438 49.511719-65.742188h16.945312l22.054688 58.816406c1.167969 3.113282 4.152343 5.183594 7.488281 5.183594h33.472656c3.3125 9.289062 12.113282 16 22.527344 16 13.230469 0 24-10.769531 24-24s-10.769531-24-24-24c-10.414062 0-19.214844 6.710938-22.527344 16h-27.929687l-18-48h13.929687c3.3125 9.289062 12.113282 16 22.527344 16 13.230469 0 24-10.769531 24-24s-10.769531-24-24-24c-10.414062 0-19.214844 6.710938-22.527344 16h-43.808594c1.488282-7.785156 2.335938-15.792969 2.335938-24s-.847656-16.214844-2.335938-24h75.808594c3.3125 9.289062 12.113282 16 22.527344 16zm0-96c4.414062 0 8 3.585938 8 8s-3.585938 8-8 8-8-3.585938-8-8 3.585938-8 8-8zm-128-128c4.414062 0 8 3.585938 8 8s-3.585938 8-8 8-8-3.585938-8-8 3.585938-8 8-8zm-64 32c4.414062 0 8 3.585938 8 8s-3.585938 8-8 8-8-3.585938-8-8 3.585938-8 8-8zm-64-32c4.414062 0 8 3.585938 8 8s-3.585938 8-8 8-8-3.585938-8-8 3.585938-8 8-8zm-64 0c4.414062 0 8 3.585938 8 8s-3.585938 8-8 8-8-3.585938-8-8 3.585938-8 8-8zm-128 144c-4.414062 0-8-3.585938-8-8s3.585938-8 8-8 8 3.585938 8 8-3.585938 8-8 8zm32 64c-4.414062 0-8-3.585938-8-8s3.585938-8 8-8 8 3.585938 8 8-3.585938 8-8 8zm-32 64c-4.414062 0-8-3.585938-8-8s3.585938-8 8-8 8 3.585938 8 8-3.585938 8-8 8zm0 64c-4.414062 0-8-3.585938-8-8s3.585938-8 8-8 8 3.585938 8 8-3.585938 8-8 8zm128 128c-4.414062 0-8-3.585938-8-8s3.585938-8 8-8 8 3.585938 8 8-3.585938 8-8 8zm64-32c-4.414062 0-8-3.585938-8-8s3.585938-8 8-8 8 3.585938 8 8-3.585938 8-8 8zm64 32c-4.414062 0-8-3.585938-8-8s3.585938-8 8-8 8 3.585938 8 8-3.585938 8-8 8zm64 0c-4.414062 0-8-3.585938-8-8s3.585938-8 8-8 8 3.585938 8 8-3.585938 8-8 8zm128-144c4.414062 0 8 3.585938 8 8s-3.585938 8-8 8-8-3.585938-8-8 3.585938-8 8-8zm-32-64c4.414062 0 8 3.585938 8 8s-3.585938 8-8 8-8-3.585938-8-8 3.585938-8 8-8zm-192 88c-61.761719 0-112-50.238281-112-112s50.238281-112 112-112 112 50.238281 112 112-50.238281 112-112 112zm224-152c4.414062 0 8 3.585938 8 8s-3.585938 8-8 8-8-3.585938-8-8 3.585938-8 8-8zm0 0"/><path d="m288 224c0-14.871094-10.230469-27.289062-24-30.863281v-17.136719h-16v16h-8v-16h-16v16h-8c-4.425781 0-8 3.574219-8 8v96c0 4.425781 3.574219 8 8 8h8v16h16v-16h8v16h16v-17.136719c13.769531-3.574219 24-15.992187 24-30.863281 0-9.609375-4.335938-18.128906-11.054688-24 6.71875-5.871094 11.054688-14.390625 11.054688-24zm-16 48c0 8.824219-7.175781 16-16 16h-32v-32h32c8.824219 0 16 7.175781 16 16zm-48-32v-32h32c8.824219 0 16 7.175781 16 16s-7.175781 16-16 16zm0 0"/><path d="m248 152c-52.9375 0-96 43.0625-96 96s43.0625 96 96 96 96-43.0625 96-96-43.0625-96-96-96zm0 176c-44.113281 0-80-35.886719-80-80s35.886719-80 80-80 80 35.886719 80 80-35.886719 80-80 80zm0 0"/></svg>